<svg width="352" height="204" viewBox="0 0 352 204" fill="none" xmlns="http://www.w3.org/2000/svg">
<circle cx="176" cy="28.5" r="28" fill="#F0F2F5"/>
<path d="M169 25.5834C169 22.0395 171.873 19.1667 175.417 19.1667C178.556 19.1667 181.171 21.4221 181.725 24.4012C181.803 24.8189 182.101 25.1614 182.505 25.2951C184.827 26.0654 186.5 28.2556 186.5 30.8334C186.5 34.055 183.888 36.6667 180.667 36.6667C180.022 36.6667 179.5 37.189 179.5 37.8334C179.5 38.4777 180.022 39 180.667 39C185.177 39 188.833 35.3437 188.833 30.8334C188.833 27.4588 186.787 24.5648 183.871 23.3195C182.873 19.5844 179.467 16.8334 175.417 16.8334C170.584 16.8334 166.667 20.7509 166.667 25.5834C166.667 25.7004 166.669 25.8169 166.674 25.9328C164.579 27.1413 163.167 29.4047 163.167 32C163.167 35.866 166.301 39 170.167 39C170.811 39 171.333 38.4777 171.333 37.8334C171.333 37.189 170.811 36.6667 170.167 36.6667C167.589 36.6667 165.5 34.5774 165.5 32C165.5 30.0665 166.676 28.4049 168.357 27.697C168.843 27.4921 169.131 26.9864 169.06 26.4635C169.02 26.1763 169 25.8826 169 25.5834Z" fill="#475367"/>
<path d="M175.225 31.1281C175.667 30.7351 176.333 30.7351 176.775 31.1281L178.525 32.6836C179.007 33.1117 179.05 33.8491 178.622 34.3307C178.248 34.752 177.636 34.8379 177.167 34.5662V40.1667C177.167 40.811 176.644 41.3334 176 41.3334C175.356 41.3334 174.833 40.811 174.833 40.1667V34.5662C174.364 34.8379 173.753 34.752 173.378 34.3307C172.95 33.8491 172.993 33.1117 173.475 32.6836L175.225 31.1281Z" fill="#475367"/>
<g clip-path="url(#clip0_1972_1807)">
<path d="M79.2569 87.654C76.3729 87.654 74.4549 85.582 74.4549 82.446C74.4549 79.324 76.4289 77.21 79.3269 77.21C81.6089 77.21 83.3589 78.568 83.7369 80.64H82.2669C81.8889 79.324 80.7549 78.526 79.2849 78.526C77.2409 78.526 75.8969 80.066 75.8969 82.432C75.8969 84.798 77.2409 86.338 79.2849 86.338C80.7689 86.338 81.9449 85.54 82.3229 84.294H83.7789C83.3449 86.31 81.5389 87.654 79.2569 87.654ZM86.5128 87.5H85.1968V77.196H86.5128V87.5ZM89.094 79.03C88.618 79.03 88.226 78.638 88.226 78.162C88.226 77.672 88.618 77.294 89.094 77.294C89.57 77.294 89.962 77.672 89.962 78.162C89.962 78.638 89.57 79.03 89.094 79.03ZM88.45 87.5V80.654H89.766V87.5H88.45ZM91.2286 84.084C91.2286 81.942 92.5866 80.458 94.5886 80.458C96.3106 80.458 97.5146 81.438 97.7526 82.964H96.4366C96.2126 82.096 95.5126 81.634 94.6306 81.634C93.3846 81.634 92.5306 82.586 92.5306 84.07C92.5306 85.54 93.3286 86.492 94.5746 86.492C95.5126 86.492 96.2126 86.002 96.4506 85.19H97.7666C97.5006 86.674 96.2266 87.668 94.5746 87.668C92.5586 87.668 91.2286 86.24 91.2286 84.084ZM100.499 87.5H99.1831V77.196H100.499V83.874L103.537 80.654H105.189L102.571 83.384L105.175 87.5H103.663L101.661 84.336L100.499 85.554V87.5ZM112.025 87.5H110.709V81.76H109.365V80.654H110.709V78.512H112.025V80.654H113.369V81.76H112.025V87.5ZM114.033 84.07C114.033 81.956 115.545 80.472 117.603 80.472C119.647 80.472 121.159 81.956 121.159 84.07C121.159 86.184 119.647 87.668 117.603 87.668C115.545 87.668 114.033 86.184 114.033 84.07ZM115.363 84.07C115.363 85.498 116.273 86.492 117.603 86.492C118.919 86.492 119.843 85.498 119.843 84.07C119.843 82.642 118.919 81.648 117.603 81.648C116.273 81.648 115.363 82.642 115.363 84.07ZM131.176 80.654H132.478V87.5H131.302L131.162 86.464C130.77 87.178 129.86 87.668 128.852 87.668C127.256 87.668 126.36 86.59 126.36 84.91V80.654H127.676V84.476C127.676 85.946 128.306 86.506 129.314 86.506C130.518 86.506 131.176 85.736 131.176 84.266V80.654ZM134.388 90.566V80.654H135.578L135.676 81.886C136.138 80.948 137.062 80.458 138.154 80.458C140.114 80.458 141.332 81.928 141.332 84.028C141.332 86.114 140.184 87.682 138.154 87.682C137.062 87.682 136.152 87.22 135.704 86.38V90.566H134.388ZM135.718 84.084C135.718 85.484 136.53 86.492 137.874 86.492C139.218 86.492 140.016 85.484 140.016 84.084C140.016 82.67 139.218 81.662 137.874 81.662C136.53 81.662 135.718 82.656 135.718 84.084ZM144.126 87.5H142.81V77.196H144.126V87.5ZM145.615 84.07C145.615 81.956 147.127 80.472 149.185 80.472C151.229 80.472 152.741 81.956 152.741 84.07C152.741 86.184 151.229 87.668 149.185 87.668C147.127 87.668 145.615 86.184 145.615 84.07ZM146.945 84.07C146.945 85.498 147.855 86.492 149.185 86.492C150.501 86.492 151.425 85.498 151.425 84.07C151.425 82.642 150.501 81.648 149.185 81.648C147.855 81.648 146.945 82.642 146.945 84.07ZM156.2 87.668C154.73 87.668 153.862 86.842 153.862 85.596C153.862 84.336 154.8 83.552 156.41 83.426L158.566 83.258V83.062C158.566 81.914 157.88 81.508 156.956 81.508C155.85 81.508 155.22 81.998 155.22 82.824H154.072C154.072 81.396 155.248 80.458 157.012 80.458C158.706 80.458 159.854 81.354 159.854 83.202V87.5H158.734L158.594 86.394C158.244 87.178 157.306 87.668 156.2 87.668ZM156.578 86.646C157.824 86.646 158.58 85.834 158.58 84.546V84.182L156.83 84.322C155.668 84.434 155.192 84.882 155.192 85.554C155.192 86.282 155.724 86.646 156.578 86.646ZM164.421 87.668C162.433 87.668 161.229 86.184 161.229 84.098C161.229 81.998 162.447 80.458 164.477 80.458C165.527 80.458 166.409 80.92 166.871 81.76V77.196H168.173V87.5H166.997L166.885 86.254C166.437 87.192 165.513 87.668 164.421 87.668ZM164.687 86.478C166.031 86.478 166.857 85.484 166.857 84.056C166.857 82.656 166.031 81.648 164.687 81.648C163.343 81.648 162.559 82.656 162.559 84.056C162.559 85.47 163.343 86.478 164.687 86.478Z" fill="#175CFF"/>
</g>
<path d="M174.032 84.112C174.032 82.04 175.488 80.542 177.476 80.542C179.464 80.542 180.92 82.04 180.92 84.112C180.92 86.17 179.464 87.668 177.476 87.668C175.488 87.668 174.032 86.17 174.032 84.112ZM175.012 84.098C175.012 85.694 176.02 86.8 177.476 86.8C178.918 86.8 179.94 85.694 179.94 84.098C179.94 82.53 178.918 81.41 177.476 81.41C176.02 81.41 175.012 82.53 175.012 84.098ZM186.007 80.64V81.508H185.475C184.229 81.508 183.431 82.348 183.431 83.636V87.5H182.465V80.724H183.375L183.445 81.774C183.711 81.046 184.425 80.57 185.377 80.57C185.587 80.57 185.769 80.584 186.007 80.64ZM193.834 87.668C191.86 87.668 190.698 86.156 190.698 84.126C190.698 82.082 191.86 80.542 193.876 80.542C194.996 80.542 195.892 81.032 196.368 82.012V77.294H197.334V87.5H196.494L196.396 86.114C195.92 87.164 194.968 87.668 193.834 87.668ZM194.002 86.786C195.486 86.786 196.354 85.666 196.354 84.098C196.354 82.544 195.486 81.41 194.002 81.41C192.532 81.41 191.678 82.544 191.678 84.098C191.678 85.666 192.532 86.786 194.002 86.786ZM202.892 80.64V81.508H202.36C201.114 81.508 200.316 82.348 200.316 83.636V87.5H199.35V80.724H200.26L200.33 81.774C200.596 81.046 201.31 80.57 202.262 80.57C202.472 80.57 202.654 80.584 202.892 80.64ZM205.849 87.668C204.407 87.668 203.553 86.856 203.553 85.666C203.553 84.42 204.505 83.636 206.087 83.51L208.327 83.328V83.104C208.327 81.774 207.529 81.354 206.535 81.354C205.359 81.354 204.659 81.886 204.659 82.796H203.777C203.777 81.424 204.897 80.542 206.563 80.542C208.131 80.542 209.279 81.326 209.279 83.118V87.5H208.467L208.341 86.31C207.921 87.164 206.997 87.668 205.849 87.668ZM206.073 86.884C207.501 86.884 208.327 85.89 208.327 84.42V84.056L206.325 84.21C205.051 84.322 204.533 84.882 204.533 85.638C204.533 86.464 205.149 86.884 206.073 86.884ZM210.755 83.916C210.755 82.068 211.945 80.542 213.933 80.542C215.109 80.542 216.005 81.088 216.439 82.082L216.537 80.724H217.377V87.29C217.377 89.306 216.089 90.622 214.101 90.622C212.365 90.622 211.147 89.642 210.881 88.004H211.847C212.057 89.096 212.897 89.74 214.115 89.74C215.501 89.74 216.425 88.802 216.425 87.388V85.778C215.963 86.73 215.025 87.29 213.863 87.29C211.931 87.29 210.755 85.764 210.755 83.916ZM211.721 83.902C211.721 85.288 212.575 86.422 214.003 86.422C215.473 86.422 216.341 85.358 216.341 83.902C216.341 82.46 215.501 81.396 214.017 81.396C212.561 81.396 211.721 82.53 211.721 83.902ZM225.222 87.668C223.78 87.668 222.926 86.856 222.926 85.666C222.926 84.42 223.878 83.636 225.46 83.51L227.7 83.328V83.104C227.7 81.774 226.902 81.354 225.908 81.354C224.732 81.354 224.032 81.886 224.032 82.796H223.15C223.15 81.424 224.27 80.542 225.936 80.542C227.504 80.542 228.652 81.326 228.652 83.118V87.5H227.84L227.714 86.31C227.294 87.164 226.37 87.668 225.222 87.668ZM225.446 86.884C226.874 86.884 227.7 85.89 227.7 84.42V84.056L225.698 84.21C224.424 84.322 223.906 84.882 223.906 85.638C223.906 86.464 224.522 86.884 225.446 86.884ZM231.556 87.5H230.59V80.724H231.43L231.57 81.9C232.018 81.032 232.914 80.542 233.894 80.542C235.756 80.542 236.526 81.648 236.526 83.356V87.5H235.56V83.566C235.56 81.984 234.846 81.424 233.726 81.424C232.34 81.424 231.556 82.432 231.556 83.958V87.5ZM241.111 87.668C239.137 87.668 237.975 86.156 237.975 84.126C237.975 82.082 239.137 80.542 241.153 80.542C242.273 80.542 243.169 81.032 243.645 82.012V77.294H244.611V87.5H243.771L243.673 86.114C243.197 87.164 242.245 87.668 241.111 87.668ZM241.279 86.786C242.763 86.786 243.631 85.666 243.631 84.098C243.631 82.544 242.763 81.41 241.279 81.41C239.809 81.41 238.955 82.544 238.955 84.098C238.955 85.666 239.809 86.786 241.279 86.786ZM253.17 87.668C251.196 87.668 250.034 86.156 250.034 84.126C250.034 82.082 251.196 80.542 253.212 80.542C254.332 80.542 255.228 81.032 255.704 82.012V77.294H256.67V87.5H255.83L255.732 86.114C255.256 87.164 254.304 87.668 253.17 87.668ZM253.338 86.786C254.822 86.786 255.69 85.666 255.69 84.098C255.69 82.544 254.822 81.41 253.338 81.41C251.868 81.41 251.014 82.544 251.014 84.098C251.014 85.666 251.868 86.786 253.338 86.786ZM262.228 80.64V81.508H261.696C260.45 81.508 259.652 82.348 259.652 83.636V87.5H258.686V80.724H259.596L259.666 81.774C259.932 81.046 260.646 80.57 261.598 80.57C261.808 80.57 261.99 80.584 262.228 80.64ZM262.776 84.112C262.776 82.04 264.232 80.542 266.22 80.542C268.208 80.542 269.664 82.04 269.664 84.112C269.664 86.17 268.208 87.668 266.22 87.668C264.232 87.668 262.776 86.17 262.776 84.112ZM263.756 84.098C263.756 85.694 264.764 86.8 266.22 86.8C267.662 86.8 268.684 85.694 268.684 84.098C268.684 82.53 267.662 81.41 266.22 81.41C264.764 81.41 263.756 82.53 263.756 84.098ZM271.209 90.454V80.724H272.049L272.147 82.096C272.623 81.046 273.575 80.542 274.709 80.542C276.669 80.542 277.845 82.04 277.845 84.084C277.845 86.128 276.711 87.668 274.709 87.668C273.561 87.668 272.651 87.178 272.175 86.198V90.454H271.209ZM272.189 84.112C272.189 85.666 273.057 86.8 274.541 86.8C276.011 86.8 276.865 85.666 276.865 84.112C276.865 82.544 276.011 81.424 274.541 81.424C273.057 81.424 272.189 82.544 272.189 84.112Z" fill="#475367"/>
<path d="M65.0182 101.14C65.0182 99.7 66.1702 98.752 67.8982 98.752C69.4462 98.752 70.4662 99.616 70.5982 101.056H69.7222C69.6262 100.084 68.9662 99.532 67.8862 99.532C66.6742 99.532 65.8822 100.156 65.8822 101.128C65.8822 101.884 66.3262 102.364 67.2262 102.592L68.7022 102.952C70.0462 103.276 70.7422 104.044 70.7422 105.208C70.7422 106.696 69.5902 107.644 67.8142 107.644C66.1462 107.644 65.0182 106.768 64.9102 105.364H65.7982C65.8462 106.264 66.6382 106.852 67.8142 106.852C69.0742 106.852 69.8782 106.24 69.8782 105.256C69.8782 104.488 69.4462 103.984 68.5222 103.768L67.0702 103.408C65.7262 103.084 65.0182 102.316 65.0182 101.14ZM74.4842 107.5L71.1962 98.908H72.1202L74.4122 104.884C74.5922 105.352 74.7602 105.82 74.9522 106.42C75.1322 105.796 75.3482 105.196 75.4802 104.872L77.7602 98.908H78.6482L75.3842 107.5H74.4842ZM83.0678 99.58C81.0878 99.58 79.8398 101.044 79.8398 103.24C79.8398 105.472 81.1598 106.828 83.0918 106.828C84.5318 106.828 85.9358 106.132 85.9358 104.068V103.624H82.8278V102.856H86.7518V107.512H86.0678L85.9838 106.144C85.5278 106.996 84.4478 107.644 83.0558 107.644C80.6198 107.644 78.9398 105.892 78.9398 103.24C78.9398 100.612 80.6198 98.764 83.0798 98.764C84.8918 98.764 86.2958 99.796 86.6318 101.356H85.6958C85.3358 100.18 84.3278 99.58 83.0678 99.58ZM90.0448 107.092C90.0448 107.836 89.4688 108.484 88.7248 108.592V108.148C89.1568 108.076 89.4688 107.764 89.4688 107.428C89.3968 107.476 89.3008 107.512 89.1568 107.512C88.8208 107.512 88.5328 107.272 88.5328 106.864C88.5328 106.444 88.8208 106.144 89.2408 106.144C89.6728 106.144 90.0448 106.492 90.0448 107.092ZM98.5055 104.344H96.0935V107.5H95.2295V98.908H98.5055C100.162 98.908 101.206 99.988 101.206 101.608C101.206 103.168 100.15 104.344 98.5055 104.344ZM98.3855 99.688H96.0935V103.564H98.3375C99.5855 103.564 100.306 102.772 100.306 101.596C100.306 100.408 99.5735 99.688 98.3855 99.688ZM103.465 107.5H102.601V98.908H103.477L108.205 106.06V98.908H109.057V107.5H108.205L103.465 100.348V107.5ZM114.755 99.58C112.775 99.58 111.527 101.044 111.527 103.24C111.527 105.472 112.847 106.828 114.779 106.828C116.219 106.828 117.623 106.132 117.623 104.068V103.624H114.515V102.856H118.439V107.512H117.755L117.671 106.144C117.215 106.996 116.135 107.644 114.743 107.644C112.307 107.644 110.627 105.892 110.627 103.24C110.627 100.612 112.307 98.764 114.767 98.764C116.579 98.764 117.983 99.796 118.319 101.356H117.383C117.023 100.18 116.015 99.58 114.755 99.58ZM121.732 107.092C121.732 107.836 121.156 108.484 120.412 108.592V108.148C120.844 108.076 121.156 107.764 121.156 107.428C121.084 107.476 120.988 107.512 120.844 107.512C120.508 107.512 120.22 107.272 120.22 106.864C120.22 106.444 120.508 106.144 120.928 106.144C121.36 106.144 121.732 106.492 121.732 107.092ZM126.113 105.136V104.8H126.953V105.136C126.953 106.156 127.505 106.828 128.549 106.828C129.641 106.828 130.145 106.144 130.145 105.124V98.908H131.009V105.148C131.009 106.708 130.001 107.644 128.549 107.644C127.001 107.644 126.113 106.624 126.113 105.136ZM136.31 104.344H133.898V107.5H133.034V98.908H136.31C137.966 98.908 139.01 99.988 139.01 101.608C139.01 103.168 137.954 104.344 136.31 104.344ZM136.19 99.688H133.898V103.564H136.142C137.39 103.564 138.11 102.772 138.11 101.596C138.11 100.408 137.378 99.688 136.19 99.688ZM144.005 99.58C142.025 99.58 140.777 101.044 140.777 103.24C140.777 105.472 142.097 106.828 144.029 106.828C145.469 106.828 146.873 106.132 146.873 104.068V103.624H143.765V102.856H147.689V107.512H147.005L146.921 106.144C146.465 106.996 145.385 107.644 143.993 107.644C141.557 107.644 139.877 105.892 139.877 103.24C139.877 100.612 141.557 98.764 144.017 98.764C145.829 98.764 147.233 99.796 147.569 101.356H146.633C146.273 100.18 145.265 99.58 144.005 99.58ZM152.145 104.596C152.145 102.82 153.393 101.536 155.097 101.536C156.801 101.536 158.049 102.82 158.049 104.596C158.049 106.36 156.801 107.644 155.097 107.644C153.393 107.644 152.145 106.36 152.145 104.596ZM152.985 104.584C152.985 105.952 153.849 106.9 155.097 106.9C156.333 106.9 157.209 105.952 157.209 104.584C157.209 103.24 156.333 102.28 155.097 102.28C153.849 102.28 152.985 103.24 152.985 104.584ZM162.41 101.62V102.364H161.954C160.886 102.364 160.202 103.084 160.202 104.188V107.5H159.374V101.692H160.154L160.214 102.592C160.442 101.968 161.054 101.56 161.87 101.56C162.05 101.56 162.206 101.572 162.41 101.62ZM170.619 99.58C168.639 99.58 167.391 101.044 167.391 103.24C167.391 105.472 168.711 106.828 170.643 106.828C172.083 106.828 173.487 106.132 173.487 104.068V103.624H170.379V102.856H174.303V107.512H173.619L173.535 106.144C173.079 106.996 171.999 107.644 170.607 107.644C168.171 107.644 166.491 105.892 166.491 103.24C166.491 100.612 168.171 98.764 170.631 98.764C172.443 98.764 173.847 99.796 174.183 101.356H173.247C172.887 100.18 171.879 99.58 170.619 99.58ZM176.883 98.908V107.5H176.019V98.908H176.883ZM183.352 103.72H179.836V107.5H178.972V98.908H184.036V99.7H179.836V102.94H183.352V103.72ZM190.819 109.384H190.063C189.055 108.004 188.395 105.964 188.395 103.9C188.395 101.92 189.031 99.856 190.063 98.428H190.819C189.895 99.724 189.247 101.74 189.247 103.9C189.247 106.012 189.871 108.064 190.819 109.384ZM192.51 107.5H191.682V101.692H192.402L192.498 102.52C192.786 101.908 193.434 101.536 194.25 101.536C195.162 101.536 195.846 102.016 196.122 102.772C196.386 102.016 197.094 101.536 198.03 101.536C199.29 101.536 200.118 102.352 200.118 103.696V107.5H199.314V103.864C199.314 102.868 198.762 102.28 197.874 102.28C196.902 102.28 196.326 103.012 196.326 103.912V107.5H195.51V103.852C195.51 102.868 194.946 102.292 194.07 102.292C193.098 102.292 192.51 103.012 192.51 103.9V107.5ZM203.452 107.644C202.216 107.644 201.484 106.948 201.484 105.928C201.484 104.86 202.3 104.188 203.656 104.08L205.576 103.924V103.732C205.576 102.592 204.892 102.232 204.04 102.232C203.032 102.232 202.432 102.688 202.432 103.468H201.676C201.676 102.292 202.636 101.536 204.064 101.536C205.408 101.536 206.392 102.208 206.392 103.744V107.5H205.696L205.588 106.48C205.228 107.212 204.436 107.644 203.452 107.644ZM203.644 106.972C204.868 106.972 205.576 106.12 205.576 104.86V104.548L203.86 104.68C202.768 104.776 202.324 105.256 202.324 105.904C202.324 106.612 202.852 106.972 203.644 106.972ZM208.281 107.5H207.309L209.385 104.596L207.321 101.692H208.293L209.937 104.02L211.569 101.692H212.529L210.465 104.608L212.517 107.5H211.533L209.901 105.172L208.281 107.5ZM214.199 107.632C213.791 107.632 213.443 107.296 213.443 106.9C213.443 106.492 213.791 106.144 214.199 106.144C214.607 106.144 214.955 106.492 214.955 106.9C214.955 107.296 214.607 107.632 214.199 107.632ZM219.708 105.16C219.708 104.104 220.344 103.264 221.364 102.916C220.5 102.568 220.008 101.86 220.008 100.972C220.008 99.652 221.136 98.752 222.78 98.752C224.412 98.752 225.504 99.652 225.504 100.984C225.504 101.884 225.024 102.592 224.172 102.916C225.168 103.228 225.828 104.092 225.828 105.172C225.828 106.636 224.592 107.644 222.768 107.644C220.944 107.644 219.708 106.636 219.708 105.16ZM220.824 100.996C220.824 101.944 221.592 102.58 222.768 102.58C223.932 102.58 224.688 101.968 224.688 101.02C224.688 100.096 223.932 99.52 222.768 99.52C221.592 99.52 220.824 100.096 220.824 100.996ZM220.56 105.088C220.56 106.156 221.448 106.864 222.78 106.864C224.088 106.864 224.976 106.156 224.976 105.088C224.976 104.032 224.112 103.348 222.756 103.348C221.424 103.348 220.56 104.032 220.56 105.088ZM227.103 103.204C227.103 100.54 228.411 98.74 230.547 98.74C232.671 98.74 233.979 100.54 233.979 103.204C233.979 105.88 232.695 107.656 230.547 107.656C228.387 107.656 227.103 105.88 227.103 103.204ZM227.955 103.204C227.955 105.436 228.903 106.876 230.547 106.876C232.191 106.876 233.139 105.436 233.139 103.204C233.139 100.96 232.191 99.532 230.547 99.532C228.903 99.532 227.955 100.96 227.955 103.204ZM235.295 103.204C235.295 100.54 236.603 98.74 238.739 98.74C240.863 98.74 242.171 100.54 242.171 103.204C242.171 105.88 240.887 107.656 238.739 107.656C236.579 107.656 235.295 105.88 235.295 103.204ZM236.147 103.204C236.147 105.436 237.095 106.876 238.739 106.876C240.383 106.876 241.331 105.436 241.331 103.204C241.331 100.96 240.383 99.532 238.739 99.532C237.095 99.532 236.147 100.96 236.147 103.204ZM243.918 107.5H242.946L245.022 104.596L242.958 101.692H243.93L245.574 104.02L247.206 101.692H248.166L246.102 104.608L248.154 107.5H247.17L245.538 105.172L243.918 107.5ZM255.127 105.676H254.119V107.5H253.279V105.676H248.767V104.908L252.967 98.908H254.119V104.908H255.127V105.676ZM249.703 104.908H253.279V99.796L249.703 104.908ZM256.471 103.204C256.471 100.54 257.779 98.74 259.915 98.74C262.039 98.74 263.347 100.54 263.347 103.204C263.347 105.88 262.063 107.656 259.915 107.656C257.755 107.656 256.471 105.88 256.471 103.204ZM257.323 103.204C257.323 105.436 258.271 106.876 259.915 106.876C261.559 106.876 262.507 105.436 262.507 103.204C262.507 100.96 261.559 99.532 259.915 99.532C258.271 99.532 257.323 100.96 257.323 103.204ZM264.662 103.204C264.662 100.54 265.97 98.74 268.106 98.74C270.23 98.74 271.538 100.54 271.538 103.204C271.538 105.88 270.254 107.656 268.106 107.656C265.946 107.656 264.662 105.88 264.662 103.204ZM265.514 103.204C265.514 105.436 266.462 106.876 268.106 106.876C269.75 106.876 270.698 105.436 270.698 103.204C270.698 100.96 269.75 99.532 268.106 99.532C266.462 99.532 265.514 100.96 265.514 103.204ZM273.057 110.032V101.692H273.777L273.861 102.868C274.269 101.968 275.085 101.536 276.057 101.536C277.737 101.536 278.745 102.82 278.745 104.572C278.745 106.324 277.773 107.644 276.057 107.644C275.073 107.644 274.293 107.224 273.885 106.384V110.032H273.057ZM273.897 104.596C273.897 105.928 274.641 106.9 275.913 106.9C277.173 106.9 277.905 105.928 277.905 104.596C277.905 103.252 277.173 102.292 275.913 102.292C274.641 102.292 273.897 103.252 273.897 104.596ZM280.094 107.5H279.122L281.198 104.596L279.134 101.692H280.106L281.75 104.02L283.382 101.692H284.342L282.278 104.608L284.33 107.5H283.346L281.714 105.172L280.094 107.5ZM285.219 109.384H284.463C285.411 108.064 286.047 106.012 286.047 103.9C286.047 101.74 285.387 99.724 284.463 98.428H285.219C286.263 99.856 286.887 101.92 286.887 103.9C286.887 105.964 286.227 108.004 285.219 109.384Z" fill="#98A2B3"/>
<rect x="54.5" y="139.5" width="243" height="1" fill="#F0F2F5"/>
<rect width="34" height="17" transform="translate(159 131)" fill="white"/>
<path d="M176.24 139.608C176.24 142.272 174.488 144.144 171.968 144.144C169.46 144.144 167.732 142.284 167.732 139.608C167.732 136.944 169.472 135.072 171.98 135.072C174.488 135.072 176.24 136.932 176.24 139.608ZM174.62 139.608C174.62 137.736 173.588 136.548 171.98 136.548C170.372 136.548 169.34 137.736 169.34 139.608C169.34 141.48 170.372 142.668 171.98 142.668C173.588 142.668 174.62 141.456 174.62 139.608ZM179.205 144H177.669V135.228H181.017C183.009 135.228 184.173 136.236 184.173 137.964C184.173 139.14 183.621 139.98 182.589 140.4L184.257 144H182.577L181.089 140.724H179.205V144ZM179.205 136.596V139.368H181.017C181.989 139.368 182.565 138.852 182.565 137.964C182.565 137.088 181.989 136.596 181.017 136.596H179.205Z" fill="#98A2B3"/>
<rect x="117.75" y="168.25" width="116.5" height="34.5" rx="7.25" stroke="#175CFF" stroke-width="1.5"/>
<path d="M134.316 190.5V180.266H138.39C140.406 180.266 141.638 181.316 141.638 183.024C141.638 184.158 141.134 184.97 140.168 185.376C141.246 185.726 141.792 186.538 141.792 187.728C141.792 189.478 140.574 190.5 138.46 190.5H134.316ZM138.236 181.848H136.108V184.634H138.278C139.258 184.634 139.804 184.116 139.804 183.206C139.804 182.324 139.244 181.848 138.236 181.848ZM138.39 186.146H136.108V188.918H138.39C139.398 188.918 139.958 188.428 139.958 187.504C139.958 186.636 139.384 186.146 138.39 186.146ZM147.523 183.556V185.138H146.893C145.661 185.138 144.891 185.796 144.891 187.14V190.5H143.183V183.598H144.793L144.891 184.606C145.185 183.92 145.843 183.458 146.767 183.458C147.005 183.458 147.243 183.486 147.523 183.556ZM148.04 187.028C148.04 184.872 149.594 183.388 151.736 183.388C153.878 183.388 155.432 184.872 155.432 187.028C155.432 189.184 153.878 190.668 151.736 190.668C149.594 190.668 148.04 189.184 148.04 187.028ZM149.748 187.028C149.748 188.288 150.56 189.142 151.736 189.142C152.912 189.142 153.724 188.288 153.724 187.028C153.724 185.768 152.912 184.914 151.736 184.914C150.56 184.914 149.748 185.768 149.748 187.028ZM157.971 190.5L155.731 183.584H157.509L158.419 186.552C158.573 187.098 158.713 187.7 158.839 188.344C158.965 187.672 159.091 187.238 159.315 186.552L160.267 183.584H162.003L162.927 186.552C163.011 186.832 163.291 187.868 163.375 188.33C163.487 187.812 163.711 186.986 163.837 186.552L164.761 183.584H166.567L164.173 190.5H162.577L161.625 187.504C161.345 186.594 161.191 185.936 161.135 185.586C161.065 185.908 160.939 186.398 160.589 187.532L159.637 190.5H157.971ZM166.918 188.4H168.542C168.556 189.002 169.004 189.38 169.788 189.38C170.586 189.38 171.02 189.058 171.02 188.554C171.02 188.204 170.838 187.952 170.222 187.812L168.976 187.518C167.73 187.238 167.128 186.65 167.128 185.544C167.128 184.186 168.276 183.374 169.872 183.374C171.426 183.374 172.476 184.27 172.49 185.614H170.866C170.852 185.026 170.46 184.648 169.802 184.648C169.13 184.648 168.738 184.956 168.738 185.474C168.738 185.866 169.046 186.118 169.634 186.258L170.88 186.552C172.042 186.818 172.63 187.35 172.63 188.414C172.63 189.814 171.44 190.682 169.732 190.682C168.01 190.682 166.918 189.758 166.918 188.4ZM177.025 190.682C174.967 190.682 173.525 189.184 173.525 187.042C173.525 184.872 174.939 183.374 176.969 183.374C179.041 183.374 180.357 184.76 180.357 186.916V187.434L175.149 187.448C175.275 188.666 175.919 189.282 177.053 189.282C177.991 189.282 178.607 188.918 178.803 188.26H180.385C180.091 189.772 178.831 190.682 177.025 190.682ZM176.983 184.774C175.975 184.774 175.359 185.32 175.191 186.356H178.663C178.663 185.404 178.005 184.774 176.983 184.774ZM191.349 186.314H187.541V190.5H185.749V180.266H192.077V181.918H187.541V184.704H191.349V186.314ZM194.295 182.198C193.707 182.198 193.245 181.736 193.245 181.162C193.245 180.588 193.707 180.14 194.295 180.14C194.855 180.14 195.317 180.588 195.317 181.162C195.317 181.736 194.855 182.198 194.295 182.198ZM193.441 190.5V183.584H195.149V190.5H193.441ZM198.635 190.5H196.941V180.084H198.635V190.5ZM203.521 190.682C201.463 190.682 200.021 189.184 200.021 187.042C200.021 184.872 201.435 183.374 203.465 183.374C205.537 183.374 206.853 184.76 206.853 186.916V187.434L201.645 187.448C201.771 188.666 202.415 189.282 203.549 189.282C204.487 189.282 205.103 188.918 205.299 188.26H206.881C206.587 189.772 205.327 190.682 203.521 190.682ZM203.479 184.774C202.471 184.774 201.855 185.32 201.687 186.356H205.159C205.159 185.404 204.501 184.774 203.479 184.774ZM207.688 188.4H209.312C209.326 189.002 209.774 189.38 210.558 189.38C211.356 189.38 211.79 189.058 211.79 188.554C211.79 188.204 211.608 187.952 210.992 187.812L209.746 187.518C208.5 187.238 207.898 186.65 207.898 185.544C207.898 184.186 209.046 183.374 210.642 183.374C212.196 183.374 213.246 184.27 213.26 185.614H211.636C211.622 185.026 211.23 184.648 210.572 184.648C209.9 184.648 209.508 184.956 209.508 185.474C209.508 185.866 209.816 186.118 210.404 186.258L211.65 186.552C212.812 186.818 213.4 187.35 213.4 188.414C213.4 189.814 212.21 190.682 210.502 190.682C208.78 190.682 207.688 189.758 207.688 188.4Z" fill="#175CFF"/>
<defs>
<clipPath id="clip0_1972_1807">
<rect x="73.5" y="72.5" width="96" height="20" rx="8" fill="white"/>
</clipPath>
</defs>
</svg>
